<svg xmlns="http://www.w3.org/2000/svg" width="900" height="330" viewBox="0 0 900 330" font-family="Helvetica, Arial, sans-serif"><defs><marker id="ah" viewBox="0 0 10 10" refX="9" refY="5" markerWidth="7" markerHeight="7" orient="auto-start-reverse"><path d="M0,0 L10,5 L0,10 z" fill="#52606d"/></marker></defs><rect width="900" height="330" fill="#ffffff"/><text x="20" y="28" font-size="16" fill="#1f2933" text-anchor="start" font-weight="700">TEDS: compare two tables as trees; the fewer edits, the closer to 1</text><text x="170" y="62" font-size="13" fill="#1f2933" text-anchor="middle" font-weight="600">truth</text><rect x="130" y="72" width="80" height="32" rx="8" fill="#f5f7fa" stroke="#9aa5b1" stroke-width="1.5"/><text x="170.0" y="92.2" font-size="12" fill="#1f2933" text-anchor="middle" font-weight="600">table</text><rect x="70" y="132" width="60" height="30" rx="8" fill="#f5f7fa" stroke="#9aa5b1" stroke-width="1.5"/><text x="100.0" y="151.2" font-size="12" fill="#1f2933" text-anchor="middle" font-weight="600">tr</text><line x1="170" y1="104" x2="100" y2="132" stroke="#9aa5b1" stroke-width="1.5"/><rect x="40" y="195" width="64" height="30" rx="8" fill="#f5f7fa" stroke="#9aa5b1" stroke-width="1.5"/><text x="72.0" y="213.85" font-size="11" fill="#1f2933" text-anchor="middle" font-weight="600">td</text><line x1="100" y1="162" x2="72" y2="195" stroke="#9aa5b1" stroke-width="1.5"/><text x="72" y="245" font-size="12" fill="#1f2933" text-anchor="middle" font-weight="400">Qty</text><rect x="110" y="195" width="64" height="30" rx="8" fill="#f5f7fa" stroke="#9aa5b1" stroke-width="1.5"/><text x="142.0" y="213.85" font-size="11" fill="#1f2933" text-anchor="middle" font-weight="600">td</text><line x1="100" y1="162" x2="142" y2="195" stroke="#9aa5b1" stroke-width="1.5"/><text x="142" y="245" font-size="12" fill="#1f2933" text-anchor="middle" font-weight="400">Amount</text><rect x="220" y="132" width="60" height="30" rx="8" fill="#f5f7fa" stroke="#9aa5b1" stroke-width="1.5"/><text x="250.0" y="151.2" font-size="12" fill="#1f2933" text-anchor="middle" font-weight="600">tr</text><line x1="170" y1="104" x2="250" y2="132" stroke="#9aa5b1" stroke-width="1.5"/><rect x="190" y="195" width="64" height="30" rx="8" fill="#f5f7fa" stroke="#9aa5b1" stroke-width="1.5"/><text x="222.0" y="213.85" font-size="11" fill="#1f2933" text-anchor="middle" font-weight="600">td</text><line x1="250" y1="162" x2="222" y2="195" stroke="#9aa5b1" stroke-width="1.5"/><text x="222" y="245" font-size="12" fill="#1f2933" text-anchor="middle" font-weight="400">4</text><rect x="260" y="195" width="64" height="30" rx="8" fill="#f5f7fa" stroke="#9aa5b1" stroke-width="1.5"/><text x="292.0" y="213.85" font-size="11" fill="#1f2933" text-anchor="middle" font-weight="600">td</text><line x1="250" y1="162" x2="292" y2="195" stroke="#9aa5b1" stroke-width="1.5"/><text x="292" y="245" font-size="12" fill="#1f2933" text-anchor="middle" font-weight="400">352.04</text><text x="620" y="62" font-size="13" fill="#1f2933" text-anchor="middle" font-weight="600">the engine's</text><rect x="580" y="72" width="80" height="32" rx="8" fill="#f5f7fa" stroke="#9aa5b1" stroke-width="1.5"/><text x="620.0" y="92.2" font-size="12" fill="#1f2933" text-anchor="middle" font-weight="600">table</text><rect x="520" y="132" width="60" height="30" rx="8" fill="#f5f7fa" stroke="#9aa5b1" stroke-width="1.5"/><text x="550.0" y="151.2" font-size="12" fill="#1f2933" text-anchor="middle" font-weight="600">tr</text><line x1="620" y1="104" x2="550" y2="132" stroke="#9aa5b1" stroke-width="1.5"/><rect x="490" y="195" width="64" height="30" rx="8" fill="#f5f7fa" stroke="#9aa5b1" stroke-width="1.5"/><text x="522.0" y="213.85" font-size="11" fill="#1f2933" text-anchor="middle" font-weight="600">td</text><line x1="550" y1="162" x2="522" y2="195" stroke="#9aa5b1" stroke-width="1.5"/><text x="522" y="245" font-size="12" fill="#1f2933" text-anchor="middle" font-weight="400">Qty</text><rect x="560" y="195" width="64" height="30" rx="8" fill="#f5f7fa" stroke="#9aa5b1" stroke-width="1.5"/><text x="592.0" y="213.85" font-size="11" fill="#1f2933" text-anchor="middle" font-weight="600">td</text><line x1="550" y1="162" x2="592" y2="195" stroke="#9aa5b1" stroke-width="1.5"/><text x="592" y="245" font-size="12" fill="#1f2933" text-anchor="middle" font-weight="400">Amount</text><rect x="670" y="132" width="60" height="30" rx="8" fill="#f5f7fa" stroke="#9aa5b1" stroke-width="1.5"/><text x="700.0" y="151.2" font-size="12" fill="#1f2933" text-anchor="middle" font-weight="600">tr</text><line x1="620" y1="104" x2="700" y2="132" stroke="#9aa5b1" stroke-width="1.5"/><rect x="640" y="195" width="64" height="30" rx="8" fill="#f5f7fa" stroke="#9aa5b1" stroke-width="1.5"/><text x="672.0" y="213.85" font-size="11" fill="#1f2933" text-anchor="middle" font-weight="600">td</text><line x1="700" y1="162" x2="672" y2="195" stroke="#9aa5b1" stroke-width="1.5"/><text x="672" y="245" font-size="12" fill="#1f2933" text-anchor="middle" font-weight="400">4</text><rect x="710" y="195" width="64" height="30" rx="8" fill="#fde8e8" stroke="#9aa5b1" stroke-width="1.5"/><text x="742.0" y="213.85" font-size="11" fill="#1f2933" text-anchor="middle" font-weight="600">td</text><line x1="700" y1="162" x2="742" y2="195" stroke="#9aa5b1" stroke-width="1.5"/><text x="742" y="245" font-size="12" fill="#d64545" text-anchor="middle" font-weight="400">352.O4</text><text x="20" y="285" font-size="12" fill="#52606d" text-anchor="start" font-weight="400">TEDS = 1 - (tree edit distance) / (size of the larger tree). Inserting or deleting a cell costs 1; renaming a cell costs its text's normalised</text><text x="20" y="303" font-size="12" fill="#52606d" text-anchor="start" font-weight="400">edit distance (here 1/6 for 'O' read for '0'), or 1 if its span differs. TEDS-S ignores the text: structure alone. (Zhong et al., 2020)</text></svg>
