<svg xmlns="http://www.w3.org/2000/svg" width="760" height="280" viewBox="0 0 760 280" font-family="Helvetica, Arial, sans-serif"><defs><marker id="ah" viewBox="0 0 10 10" refX="9" refY="5" markerWidth="7" markerHeight="7" orient="auto-start-reverse"><path d="M0,0 L10,5 L0,10 z" fill="#52606d"/></marker></defs><rect width="760" height="280" fill="#ffffff"/><text x="20" y="28" font-size="16" fill="#1f2933" text-anchor="start" font-weight="700">The small judges: logistic regression over a handful of named features</text><rect x="20" y="62" width="200" height="26" rx="5" fill="#e8f0fe" stroke="#9aa5b1" stroke-width="1.5"/><text x="120.0" y="79.2" font-size="12" fill="#1f2933" text-anchor="middle" font-weight="600">reader endorsed share</text><line x1="220" y1="75" x2="330" y2="138" stroke="#9aa5b1" stroke-width="1.6" marker-end="url(#ah)"/><rect x="20" y="96" width="200" height="26" rx="5" fill="#e8f0fe" stroke="#9aa5b1" stroke-width="1.5"/><text x="120.0" y="113.2" font-size="12" fill="#1f2933" text-anchor="middle" font-weight="600">classic endorsed share</text><line x1="220" y1="109" x2="330" y2="138" stroke="#9aa5b1" stroke-width="1.6" marker-end="url(#ah)"/><rect x="20" y="130" width="200" height="26" rx="5" fill="#e8f0fe" stroke="#9aa5b1" stroke-width="1.5"/><text x="120.0" y="147.2" font-size="12" fill="#1f2933" text-anchor="middle" font-weight="600">agreement share</text><line x1="220" y1="143" x2="330" y2="138" stroke="#9aa5b1" stroke-width="1.6" marker-end="url(#ah)"/><rect x="20" y="164" width="200" height="26" rx="5" fill="#e8f0fe" stroke="#9aa5b1" stroke-width="1.5"/><text x="120.0" y="181.2" font-size="12" fill="#1f2933" text-anchor="middle" font-weight="600">reader nll / char</text><line x1="220" y1="177" x2="330" y2="138" stroke="#9aa5b1" stroke-width="1.6" marker-end="url(#ah)"/><rect x="20" y="198" width="200" height="26" rx="5" fill="#e8f0fe" stroke="#9aa5b1" stroke-width="1.5"/><text x="120.0" y="215.2" font-size="12" fill="#1f2933" text-anchor="middle" font-weight="600">…</text><line x1="220" y1="211" x2="330" y2="138" stroke="#9aa5b1" stroke-width="1.6" marker-end="url(#ah)"/><circle cx="360" cy="138" r="30" fill="#f5f7fa" stroke="#1f2933" stroke-width="1.5"/><text x="360" y="141.85" font-size="11" fill="#1f2933" text-anchor="middle" font-weight="400">Σ wᵢxᵢ + b</text><line x1="390" y1="138" x2="450" y2="138" stroke="#52606d" stroke-width="1.6" marker-end="url(#ah)"/><rect x="452" y="108" width="110" height="60" rx="8" fill="#fdf1e3" stroke="#9aa5b1" stroke-width="1.5"/><text x="507.0" y="135.9" font-size="14" fill="#1f2933" text-anchor="middle" font-weight="600">σ</text><text x="507.0" y="150.0" font-size="12" fill="#52606d" text-anchor="middle" font-weight="400">→ probability</text><line x1="562" y1="138" x2="612" y2="138" stroke="#52606d" stroke-width="1.6" marker-end="url(#ah)"/><rect x="614" y="108" width="130" height="60" rx="8" fill="#f5f7fa" stroke="#9aa5b1" stroke-width="1.5"/><text x="679.0" y="135.55" font-size="13" fill="#1f2933" text-anchor="middle" font-weight="600">p &gt; 0.5 ?</text><text x="679.0" y="150.0" font-size="12" fill="#52606d" text-anchor="middle" font-weight="400">take the reader's line</text><text x="20" y="268" font-size="12" fill="#52606d" text-anchor="start" font-weight="400">16 weights you can print and read: the line-choice judge, the word-confidence calibrator, the table choice.</text></svg>
